<svg width="167" height="66" viewBox="0 0 167 66" fill="none" xmlns="http://www.w3.org/2000/svg">
<path d="M64.8599 10.7987H68.3799V31.332H65.1533V29.8654H65.0946C64.019 31.2343 62.4155 31.9187 60.2839 31.9187C59.3648 31.9187 58.4946 31.772 57.6733 31.4787C56.8519 31.1854 56.0893 30.7356 55.3853 30.1294C54.6813 29.5231 54.1239 28.692 53.7133 27.636C53.3026 26.58 53.0973 25.3578 53.0973 23.9694C53.0973 22.4831 53.3222 21.1534 53.7719 19.98C54.2413 18.7871 55.0235 17.7996 56.1186 17.0174C57.2137 16.2351 58.563 15.844 60.1666 15.844C60.4013 15.844 60.6555 15.8636 60.9293 15.9027C61.203 15.9223 61.6137 15.9907 62.1613 16.108C62.7284 16.2058 63.2466 16.4209 63.7159 16.7534C64.2048 17.0663 64.5862 17.4671 64.8599 17.956V10.7987ZM56.8519 23.9987C56.8519 25.172 57.0084 26.1596 57.3213 26.9614C57.6342 27.7436 58.035 28.3107 58.5239 28.6627C59.0128 28.9951 59.4528 29.22 59.8439 29.3374C60.2546 29.4547 60.6555 29.5134 61.0466 29.5134C62.2982 29.5134 63.2857 28.9951 64.0093 27.9587C64.7524 26.9223 65.1239 25.5729 65.1239 23.9107C65.1239 22.7765 64.987 21.8085 64.7133 21.0067C64.4395 20.2049 64.0777 19.6183 63.6279 19.2467C63.1782 18.8751 62.7382 18.6209 62.3079 18.484C61.8973 18.3276 61.467 18.2494 61.0173 18.2494C59.8244 18.2494 58.827 18.7187 58.0253 19.6574C57.243 20.5765 56.8519 22.0236 56.8519 23.9987ZM83.0684 27.02H86.4124C86.295 27.5871 86.1093 28.1249 85.855 28.6334C85.6204 29.1223 85.2488 29.6405 84.7404 30.188C84.2515 30.716 83.5377 31.1365 82.599 31.4494C81.6604 31.7623 80.5653 31.9187 79.3137 31.9187C78.8444 31.9187 78.375 31.8894 77.9057 31.8307C77.4559 31.7916 76.8302 31.6254 76.0284 31.332C75.2266 31.0387 74.5324 30.6476 73.9457 30.1587C73.3786 29.6503 72.8702 28.8778 72.4204 27.8414C71.9706 26.7854 71.7457 25.5534 71.7457 24.1454C71.7457 21.5445 72.3813 19.5107 73.6524 18.044C74.943 16.5774 76.8399 15.844 79.343 15.844C83.9777 15.844 86.4026 18.5427 86.6177 23.94C86.6177 24.0574 86.6177 24.204 86.6177 24.38C86.6373 24.556 86.647 24.6929 86.647 24.7907H75.5004C75.5004 25.3187 75.5688 25.8369 75.7057 26.3454C75.8426 26.8538 76.0577 27.3623 76.351 27.8707C76.6444 28.3596 77.0746 28.7605 77.6417 29.0734C78.2088 29.3667 78.8639 29.5134 79.607 29.5134C80.4479 29.5134 81.2008 29.2983 81.8657 28.868C82.5502 28.4183 82.951 27.8023 83.0684 27.02ZM75.5004 22.3854H82.9217C82.9217 21.9747 82.8728 21.564 82.775 21.1534C82.6968 20.7427 82.5404 20.3027 82.3057 19.8334C82.071 19.364 81.6995 18.9827 81.191 18.6894C80.7022 18.396 80.0959 18.2494 79.3724 18.2494C78.1013 18.2494 77.1235 18.6698 76.439 19.5107C75.7742 20.3516 75.4613 21.3098 75.5004 22.3854ZM95.293 27.8707L99.0477 16.4307H102.802L97.3464 31.332H93.2397L87.7837 16.4307H91.5384L95.293 27.8707ZM104.794 16.4307H108.314V31.332H104.794V16.4307ZM104.794 13.908V10.7987H108.314V13.908H104.794ZM112.529 16.4307H116.049V18.396C116.538 17.5747 117.242 16.9489 118.161 16.5187C119.08 16.0689 120.009 15.844 120.947 15.844C121.906 15.844 122.727 16.0103 123.411 16.3427C124.115 16.6751 124.624 17.0467 124.937 17.4574C125.269 17.868 125.523 18.3765 125.699 18.9827C125.895 19.5694 126.002 20.0191 126.022 20.332C126.061 20.6449 126.081 20.9871 126.081 21.3587V31.332H122.561V22.4734C122.561 21.9845 122.551 21.6031 122.531 21.3294C122.531 21.036 122.482 20.6743 122.385 20.244C122.287 19.7943 122.14 19.452 121.945 19.2174C121.769 18.9631 121.495 18.7383 121.123 18.5427C120.752 18.3471 120.302 18.2494 119.774 18.2494C119.52 18.2494 119.266 18.2787 119.011 18.3374C118.757 18.3765 118.434 18.4938 118.043 18.6894C117.672 18.8654 117.349 19.1196 117.075 19.452C116.802 19.7649 116.557 20.2343 116.342 20.86C116.146 21.4663 116.049 22.18 116.049 23.0014V31.332H112.529V16.4307ZM133.926 16.4307C134.864 16.0396 135.94 15.844 137.152 15.844C138.365 15.844 139.44 16.0396 140.379 16.4307C141.318 16.8023 142.061 17.2716 142.608 17.8387C143.156 18.4058 143.606 19.0707 143.958 19.8334C144.31 20.596 144.544 21.3 144.662 21.9454C144.779 22.5907 144.838 23.236 144.838 23.8814C144.838 24.5267 144.779 25.172 144.662 25.8174C144.544 26.4627 144.31 27.1667 143.958 27.9294C143.606 28.692 143.156 29.3569 142.608 29.924C142.061 30.4911 141.318 30.9605 140.379 31.332C139.44 31.7231 138.365 31.9187 137.152 31.9187C135.94 31.9187 134.864 31.7231 133.926 31.332C132.987 30.9605 132.244 30.4911 131.696 29.924C131.149 29.3569 130.699 28.7018 130.347 27.9587C129.995 27.196 129.76 26.492 129.643 25.8467C129.526 25.1818 129.467 24.5267 129.467 23.8814C129.467 23.236 129.526 22.5907 129.643 21.9454C129.76 21.3 129.995 20.596 130.347 19.8334C130.699 19.0707 131.149 18.4058 131.696 17.8387C132.244 17.2716 132.987 16.8023 133.926 16.4307ZM138.326 18.4254C137.954 18.308 137.563 18.2494 137.152 18.2494C136.742 18.2494 136.351 18.308 135.979 18.4254C135.608 18.5427 135.187 18.7774 134.718 19.1294C134.268 19.4814 133.906 20.068 133.632 20.8894C133.359 21.6911 133.222 22.6885 133.222 23.8814C133.222 25.0743 133.359 26.0814 133.632 26.9027C133.906 27.7045 134.268 28.2814 134.718 28.6334C135.187 28.9854 135.608 29.22 135.979 29.3374C136.351 29.4547 136.742 29.5134 137.152 29.5134C137.563 29.5134 137.954 29.4547 138.326 29.3374C138.697 29.22 139.108 28.9854 139.558 28.6334C140.027 28.2814 140.399 27.7045 140.672 26.9027C140.946 26.0814 141.083 25.0743 141.083 23.8814C141.083 22.6885 140.946 21.6911 140.672 20.8894C140.399 20.068 140.027 19.4814 139.558 19.1294C139.108 18.7774 138.697 18.5427 138.326 18.4254ZM52.2466 45.4307H54.6519V40.972H58.1719V45.4307H61.2813V47.836H58.1719V56.2547C58.1719 56.7045 58.1915 57.0369 58.2306 57.252C58.2697 57.4476 58.4164 57.6431 58.6706 57.8387C58.9444 58.0147 59.355 58.1027 59.9026 58.1027C60.4306 58.1027 60.8902 58.044 61.2813 57.9267V60.332C60.4013 60.5667 59.443 60.684 58.4066 60.684C57.5462 60.684 56.8324 60.5667 56.2653 60.332C55.7177 60.1169 55.3364 59.8138 55.1213 59.4227C54.9257 59.0316 54.7986 58.6991 54.7399 58.4254C54.6813 58.132 54.6519 57.7996 54.6519 57.428V47.836H52.2466V45.4307ZM74.446 56.02H77.79C77.6726 56.5871 77.4869 57.1249 77.2326 57.6334C76.998 58.1223 76.6264 58.6405 76.118 59.188C75.6291 59.716 74.9153 60.1365 73.9766 60.4494C73.038 60.7623 71.9429 60.9187 70.6913 60.9187C70.222 60.9187 69.7526 60.8894 69.2833 60.8307C68.8335 60.7916 68.2078 60.6254 67.406 60.332C66.6042 60.0387 65.91 59.6476 65.3233 59.1587C64.7562 58.6503 64.2478 57.8778 63.798 56.8414C63.3482 55.7854 63.1233 54.5534 63.1233 53.1454C63.1233 50.5445 63.7589 48.5107 65.03 47.044C66.3206 45.5774 68.2175 44.844 70.7206 44.844C75.3553 44.844 77.7802 47.5427 77.9953 52.94C77.9953 53.0574 77.9953 53.204 77.9953 53.38C78.0149 53.556 78.0246 53.6929 78.0246 53.7907H66.878C66.878 54.3187 66.9464 54.8369 67.0833 55.3454C67.2202 55.8538 67.4353 56.3623 67.7286 56.8707C68.022 57.3596 68.4522 57.7605 69.0193 58.0734C69.5864 58.3667 70.2415 58.5134 70.9846 58.5134C71.8255 58.5134 72.5784 58.2983 73.2433 57.868C73.9278 57.4183 74.3286 56.8023 74.446 56.02ZM66.878 51.3854H74.2993C74.2993 50.9747 74.2504 50.564 74.1526 50.1534C74.0744 49.7427 73.918 49.3027 73.6833 48.8334C73.4486 48.364 73.0771 47.9827 72.5686 47.6894C72.0798 47.396 71.4735 47.2494 70.75 47.2494C69.4789 47.2494 68.5011 47.6698 67.8166 48.5107C67.1518 49.3516 66.8389 50.3098 66.878 51.3854ZM81.3906 39.7987H84.9106V60.332H81.3906V39.7987ZM99.3679 56.02H102.712C102.595 56.5871 102.409 57.1249 102.155 57.6334C101.92 58.1223 101.548 58.6405 101.04 59.188C100.551 59.716 99.8372 60.1365 98.8985 60.4494C97.9599 60.7623 96.8647 60.9187 95.6132 60.9187C95.1439 60.9187 94.6745 60.8894 94.2052 60.8307C93.7554 60.7916 93.1296 60.6254 92.3279 60.332C91.5261 60.0387 90.8319 59.6476 90.2452 59.1587C89.6781 58.6503 89.1696 57.8778 88.7199 56.8414C88.2701 55.7854 88.0452 54.5534 88.0452 53.1454C88.0452 50.5445 88.6807 48.5107 89.9519 47.044C91.2425 45.5774 93.1394 44.844 95.6425 44.844C100.277 44.844 102.702 47.5427 102.917 52.94C102.917 53.0574 102.917 53.204 102.917 53.38C102.937 53.556 102.947 53.6929 102.947 53.7907H91.7999C91.7999 54.3187 91.8683 54.8369 92.0052 55.3454C92.1421 55.8538 92.3572 56.3623 92.6505 56.8707C92.9439 57.3596 93.3741 57.7605 93.9412 58.0734C94.5083 58.3667 95.1634 58.5134 95.9065 58.5134C96.7474 58.5134 97.5003 58.2983 98.1652 57.868C98.8496 57.4183 99.2505 56.8023 99.3679 56.02ZM91.7999 51.3854H99.2212C99.2212 50.9747 99.1723 50.564 99.0745 50.1534C98.9963 49.7427 98.8399 49.3027 98.6052 48.8334C98.3705 48.364 97.999 47.9827 97.4905 47.6894C97.0016 47.396 96.3954 47.2494 95.6719 47.2494C94.4007 47.2494 93.423 47.6698 92.7385 48.5107C92.0736 49.3516 91.7607 50.3098 91.7999 51.3854ZM116.638 54.876H119.982C119.923 55.3649 119.825 55.8538 119.689 56.3427C119.552 56.8316 119.307 57.3596 118.955 57.9267C118.623 58.4938 118.212 58.9925 117.723 59.4227C117.234 59.8529 116.569 60.2049 115.729 60.4787C114.907 60.772 113.978 60.9187 112.942 60.9187C110.478 60.9187 108.61 60.1951 107.339 58.748C106.088 57.3009 105.462 55.3551 105.462 52.9107C105.462 51.4636 105.657 50.212 106.049 49.156C106.459 48.1 106.929 47.308 107.457 46.78C108.004 46.2325 108.659 45.8023 109.422 45.4894C110.185 45.1765 110.81 44.9907 111.299 44.932C111.788 44.8734 112.297 44.844 112.825 44.844C114.976 44.844 116.648 45.3818 117.841 46.4574C119.053 47.5134 119.747 48.8236 119.923 50.388H116.579C116.501 49.5276 116.159 48.7943 115.553 48.188C114.946 47.5623 114.105 47.2494 113.03 47.2494C110.488 47.2494 109.217 49.1365 109.217 52.9107C109.217 54.0058 109.344 54.9445 109.598 55.7267C109.852 56.5089 110.185 57.0956 110.595 57.4867C111.025 57.8583 111.456 58.1223 111.886 58.2787C112.316 58.4351 112.766 58.5134 113.235 58.5134C114.389 58.5134 115.23 58.1418 115.758 57.3987C116.286 56.636 116.579 55.7951 116.638 54.876ZM126.764 45.4307C127.703 45.0396 128.778 44.844 129.991 44.844C131.203 44.844 132.279 45.0396 133.218 45.4307C134.156 45.8023 134.899 46.2716 135.447 46.8387C135.994 47.4058 136.444 48.0707 136.796 48.8334C137.148 49.596 137.383 50.3 137.5 50.9454C137.618 51.5907 137.676 52.236 137.676 52.8814C137.676 53.5267 137.618 54.172 137.5 54.8174C137.383 55.4627 137.148 56.1667 136.796 56.9294C136.444 57.692 135.994 58.3569 135.447 58.924C134.899 59.4911 134.156 59.9605 133.218 60.332C132.279 60.7231 131.203 60.9187 129.991 60.9187C128.778 60.9187 127.703 60.7231 126.764 60.332C125.826 59.9605 125.082 59.4911 124.535 58.924C123.987 58.3569 123.538 57.7018 123.186 56.9587C122.834 56.196 122.599 55.492 122.482 54.8467C122.364 54.1818 122.306 53.5267 122.306 52.8814C122.306 52.236 122.364 51.5907 122.482 50.9454C122.599 50.3 122.834 49.596 123.186 48.8334C123.538 48.0707 123.987 47.4058 124.535 46.8387C125.082 46.2716 125.826 45.8023 126.764 45.4307ZM131.164 47.4254C130.793 47.308 130.402 47.2494 129.991 47.2494C129.58 47.2494 129.189 47.308 128.818 47.4254C128.446 47.5427 128.026 47.7774 127.556 48.1294C127.106 48.4814 126.745 49.068 126.471 49.8894C126.197 50.6911 126.06 51.6885 126.06 52.8814C126.06 54.0743 126.197 55.0814 126.471 55.9027C126.745 56.7045 127.106 57.2814 127.556 57.6334C128.026 57.9854 128.446 58.22 128.818 58.3374C129.189 58.4547 129.58 58.5134 129.991 58.5134C130.402 58.5134 130.793 58.4547 131.164 58.3374C131.536 58.22 131.946 57.9854 132.396 57.6334C132.866 57.2814 133.237 56.7045 133.511 55.9027C133.785 55.0814 133.922 54.0743 133.922 52.8814C133.922 51.6885 133.785 50.6911 133.511 49.8894C133.237 49.068 132.866 48.4814 132.396 48.1294C131.946 47.7774 131.536 47.5427 131.164 47.4254ZM141.06 45.4307H144.58V47.2787C145.03 46.4965 145.685 45.9 146.545 45.4894C147.425 45.0591 148.315 44.844 149.215 44.844C150.29 44.844 151.16 45.0494 151.825 45.46C152.49 45.8707 153.018 46.5649 153.409 47.5427C154.524 45.7436 156.294 44.844 158.719 44.844C162.043 44.844 163.705 46.8876 163.705 50.9747V60.332H160.185V51.18C160.185 50.6325 160.156 50.1631 160.097 49.772C160.058 49.3809 159.951 48.98 159.775 48.5694C159.618 48.1391 159.354 47.8165 158.983 47.6014C158.631 47.3667 158.171 47.2494 157.604 47.2494C156.704 47.2494 155.903 47.6014 155.199 48.3054C154.495 49.0094 154.143 50.0947 154.143 51.5614V60.332H150.623V51.18C150.623 50.6325 150.593 50.1631 150.535 49.772C150.495 49.3809 150.388 48.98 150.212 48.5694C150.055 48.1391 149.791 47.8165 149.42 47.6014C149.068 47.3667 148.608 47.2494 148.041 47.2494C147.142 47.2494 146.34 47.6014 145.636 48.3054C144.932 49.0094 144.58 50.0947 144.58 51.5614V60.332H141.06V45.4307Z" fill="black"/>
<circle cx="19.6665" cy="20.5259" r="17.8488" stroke="black" stroke-width="2.02869"/>
<path d="M36.7639 20.9487L36.7639 18.9756C29.0231 31.9773 7.04594 30.4938 4.27697 12.8841L3.39093 14.8777C9.03949 36.1422 32.8877 29.3659 36.7639 20.9487Z" fill="black" stroke="black" stroke-width="0.901639"/>
<path d="M19.5983 37.443L22.5922 37.8685C6.36966 31.8971 6.93606 8.89834 24.8781 4.24671L22.5522 3.58219C0.844574 12.6639 10.1842 34.4619 19.5983 37.443Z" fill="black" stroke="black" stroke-width="0.901639"/>
<path d="M6.74924 9.87416L5.42021 11.4247C21.8118 8.21282 31.4624 26.4564 23.2665 37.6425L25.4663 36.2334C33.8829 19.1774 16.2738 6.99455 6.74924 9.87416Z" fill="black" stroke="black" stroke-width="0.901639"/>
<circle cx="14.0927" cy="10.9325" r="2.2541" fill="white" stroke="black" stroke-width="2.02869"/>
<circle cx="10.7138" cy="25.5829" r="2.2541" fill="white" stroke="black" stroke-width="2.02869"/>
<circle cx="27.0692" cy="27.0634" r="2.2541" fill="white" stroke="black" stroke-width="2.02869"/>
</svg>
