<svg width="80" height="16" viewBox="0 0 80 16" fill="none" xmlns="http://www.w3.org/2000/svg">
<path fill-rule="evenodd" clip-rule="evenodd" d="M6.73102 1.76313C7.12834 0.530942 8.87168 0.530941 9.269 1.76313L10.3741 5.19015L13.9608 5.19015C15.25 5.19015 15.7886 6.83779 14.7484 7.59933L11.838 9.73009L12.9476 13.1713C13.3443 14.4015 11.9339 15.4199 10.891 14.6564L8.00001 12.5399L5.10904 14.6564C4.06608 15.4199 2.65574 14.4015 3.05242 13.1713L4.16206 9.73009L1.25158 7.59933C0.21138 6.83779 0.750035 5.19015 2.0392 5.19015H5.62597L6.73102 1.76313Z" fill="#FF9E2A"/>
<path fill-rule="evenodd" clip-rule="evenodd" d="M22.731 1.76313C23.1283 0.530942 24.8717 0.530941 25.269 1.76313L26.3741 5.19015L29.9608 5.19015C31.25 5.19015 31.7886 6.83779 30.7484 7.59933L27.838 9.73009L28.9476 13.1713C29.3443 14.4015 27.9339 15.4199 26.891 14.6564L24 12.5399L21.109 14.6564C20.0661 15.4199 18.6557 14.4015 19.0524 13.1713L20.1621 9.73009L17.2516 7.59933C16.2114 6.83779 16.75 5.19015 18.0392 5.19015H21.626L22.731 1.76313Z" fill="#FF9E2A"/>
<path fill-rule="evenodd" clip-rule="evenodd" d="M38.731 1.76313C39.1283 0.530942 40.8717 0.530941 41.269 1.76313L42.3741 5.19015L45.9608 5.19015C47.25 5.19015 47.7886 6.83779 46.7484 7.59933L43.838 9.73009L44.9476 13.1713C45.3443 14.4015 43.9339 15.4199 42.891 14.6564L40 12.5399L37.109 14.6564C36.0661 15.4199 34.6557 14.4015 35.0524 13.1713L36.1621 9.73009L33.2516 7.59933C32.2114 6.83779 32.75 5.19015 34.0392 5.19015H37.626L38.731 1.76313Z" fill="#FF9E2A"/>
<path fill-rule="evenodd" clip-rule="evenodd" d="M54.731 1.76313C55.1283 0.530942 56.8717 0.530941 57.269 1.76313L58.3741 5.19015L61.9608 5.19015C63.25 5.19015 63.7886 6.83779 62.7484 7.59933L59.838 9.73009L60.9476 13.1713C61.3443 14.4015 59.9339 15.4199 58.891 14.6564L56 12.5399L53.109 14.6564C52.0661 15.4199 50.6557 14.4015 51.0524 13.1713L52.1621 9.73009L49.2516 7.59933C48.2114 6.83779 48.75 5.19015 50.0392 5.19015H53.626L54.731 1.76313Z" fill="#FF9E2A"/>
<path fill-rule="evenodd" clip-rule="evenodd" d="M70.731 1.76313C71.1283 0.530942 72.8717 0.530941 73.269 1.76313L74.3741 5.19015L77.9608 5.19015C79.25 5.19015 79.7886 6.83779 78.7484 7.59933L75.838 9.73009L76.9476 13.1713C77.3443 14.4015 75.9339 15.4199 74.891 14.6564L72 12.5399L69.109 14.6564C68.0661 15.4199 66.6557 14.4015 67.0524 13.1713L68.1621 9.73009L65.2516 7.59933C64.2114 6.83779 64.75 5.19015 66.0392 5.19015H69.626L70.731 1.76313ZM73.1051 5.59934L72 2.17232L70.895 5.59934C70.7174 6.15015 70.2047 6.52349 69.626 6.52349H66.0392L68.9497 8.65425C69.4134 8.99377 69.6074 9.59226 69.431 10.1393L68.3214 13.5805L71.2124 11.464C71.6814 11.1207 72.3187 11.1207 72.7876 11.464L75.6786 13.5805L74.569 10.1393C74.3926 9.59226 74.5866 8.99377 75.0503 8.65425L77.9608 6.52349H74.3741C73.7953 6.52349 73.2827 6.15015 73.1051 5.59934Z" fill="#FF9E2A"/>
</svg>
