<svg width="58" height="47" viewBox="0 0 58 47" fill="none" xmlns="http://www.w3.org/2000/svg">
<path d="M4.976 40.56L3.77024 41.4523L3.77526 41.4591L3.78036 41.4658L4.976 40.56ZM4.976 6.704L3.776 5.804L3.77455 5.80594L4.976 6.704ZM31.344 6.704L30.1382 7.59627L30.1425 7.60206L31.344 6.704ZM31.344 40.56L32.5455 41.4581L32.5498 41.4523L31.344 40.56ZM11.376 34.544L10.0955 35.3253L10.1015 35.335L11.376 34.544ZM24.944 34.48L23.6732 33.6831L23.6683 33.6909L23.6635 33.6987L24.944 34.48ZM24.944 12.656L23.6635 13.4373L23.6683 13.4451L23.6732 13.4529L24.944 12.656ZM18.16 45.396C13.0103 45.396 9.07046 43.4807 6.17164 39.6542L3.78036 41.4658C7.28154 46.0873 12.131 48.396 18.16 48.396V45.396ZM6.18176 39.6677C3.26936 35.7321 1.74 30.4229 1.74 23.6H-1.26C-1.26 30.8571 0.367978 36.8546 3.77024 41.4523L6.18176 39.6677ZM1.74 23.6C1.74 16.7761 3.26973 11.4921 6.17745 7.60206L3.77455 5.80594C0.367599 10.3639 -1.26 16.3439 -1.26 23.6H1.74ZM6.176 7.604C9.07718 3.73576 13.0163 1.804 18.16 1.804V-1.196C12.125 -1.196 7.27482 1.13891 3.776 5.804L6.176 7.604ZM18.16 1.804C23.3504 1.804 27.2834 3.73833 30.1382 7.59626L32.5498 5.81173C29.09 1.13633 24.2336 -1.196 18.16 -1.196V1.804ZM30.1425 7.60206C33.0503 11.4921 34.58 16.7761 34.58 23.6H37.58C37.58 16.3439 35.9524 10.3639 32.5455 5.80594L30.1425 7.60206ZM34.58 23.6C34.58 30.4229 33.0506 35.7321 30.1382 39.6677L32.5498 41.4523C35.952 36.8546 37.58 30.8571 37.58 23.6H34.58ZM30.1425 39.6619C27.2901 43.4781 23.3564 45.396 18.16 45.396V48.396C24.2276 48.396 29.0833 46.0899 32.5455 41.4581L30.1425 39.6619ZM10.1015 35.335C11.9195 38.264 14.6706 39.756 18.16 39.756V36.756C15.6761 36.756 13.9045 35.7733 12.6505 33.753L10.1015 35.335ZM18.16 39.756C21.6614 39.756 24.4118 38.232 26.2245 35.2613L23.6635 33.6987C22.4042 35.7627 20.632 36.756 18.16 36.756V39.756ZM26.2148 35.2769C28.0076 32.4182 28.812 28.4655 28.812 23.6H25.812C25.812 28.2065 25.0378 31.5072 23.6732 33.6831L26.2148 35.2769ZM28.812 23.6C28.812 18.6949 28.0086 14.7195 26.2148 11.8591L23.6732 13.4529C25.0367 15.6272 25.812 18.9478 25.812 23.6H28.812ZM26.2245 11.8747C24.4118 8.90402 21.6614 7.38 18.16 7.38V10.38C20.632 10.38 22.4042 11.3733 23.6635 13.4373L26.2245 11.8747ZM18.16 7.38C14.6586 7.38 11.9082 8.90402 10.0955 11.8747L12.6565 13.4373C13.9158 11.3733 15.688 10.38 18.16 10.38V7.38ZM10.0955 11.8747C8.35262 14.7312 7.572 18.6999 7.572 23.6H10.572C10.572 18.9428 11.3274 15.6155 12.6565 13.4373L10.0955 11.8747ZM7.572 23.6C7.572 28.5001 8.35262 32.4688 10.0955 35.3253L12.6565 33.7627C11.3274 31.5845 10.572 28.2572 10.572 23.6H7.572ZM49.5425 1.2V-0.300003H49.2853L49.0429 -0.214347L49.5425 1.2ZM57.2225 1.2H58.7225V-0.300003H57.2225V1.2ZM57.2225 46V47.5H58.7225V46H57.2225ZM48.3905 46H46.8905V47.5H48.3905V46ZM48.3905 10.544H49.8905V8.56573L47.9856 9.09967L48.3905 10.544ZM39.9425 12.912L38.5011 13.3273L38.9134 14.7583L40.3474 14.3563L39.9425 12.912ZM37.7665 5.36L37.2669 3.94565L35.9337 4.41662L36.3251 5.7753L37.7665 5.36ZM49.5425 2.7H57.2225V-0.300003H49.5425V2.7ZM55.7225 1.2V46H58.7225V1.2H55.7225ZM57.2225 44.5H48.3905V47.5H57.2225V44.5ZM49.8905 46V10.544H46.8905V46H49.8905ZM47.9856 9.09967L39.5377 11.4677L40.3474 14.3563L48.7953 11.9883L47.9856 9.09967ZM41.3839 12.4967L39.2079 4.94469L36.3251 5.7753L38.5011 13.3273L41.3839 12.4967ZM38.2661 6.77434L50.0421 2.61434L49.0429 -0.214347L37.2669 3.94565L38.2661 6.77434Z" fill="white"/>
</svg>
